<svg id="레이어_1" data-name="레이어 1" xmlns="http://www.w3.org/2000/svg" viewBox="0 0 750 750"><defs><style>.cls-1{fill:#eceff3;}</style></defs><path class="cls-1" d="M0,302.5A27.5,27.5,0,0,0,27.5,330h275A27.5,27.5,0,0,0,330,302.5h0V27.5A27.5,27.5,0,0,0,302.5,0H27.5A27.5,27.5,0,0,0,0,27.5Z" transform="translate(0)"/><path class="cls-1" d="M419.5,303A27.54,27.54,0,0,0,447,330.5H722.46A27.54,27.54,0,0,0,750,303V27.54A27.54,27.54,0,0,0,722.46,0H447a27.54,27.54,0,0,0-27.5,27.54Z" transform="translate(0)"/><path class="cls-1" d="M417,722.25A27.74,27.74,0,0,0,444.73,750H722.25A27.74,27.74,0,0,0,750,722.27V444.75A27.74,27.74,0,0,0,722.27,417H444.75A27.74,27.74,0,0,0,417,444.73V722.25Z" transform="translate(0)"/><path class="cls-1" d="M0,722.54A27.45,27.45,0,0,0,27.44,750H302a27.45,27.45,0,0,0,27.46-27.44V448a27.45,27.45,0,0,0-27.4-27.5H27.46A27.45,27.45,0,0,0,0,447.94v274.6Z" transform="translate(0)"/></svg>