<svg id="레이어_1" data-name="레이어 1" xmlns="http://www.w3.org/2000/svg" viewBox="0 0 750 750"><defs><style>.cls-1{fill:#eceff3;}</style></defs><path class="cls-1" d="M0,153.82c0,14.74,13.43,26.68,30,26.68H720c16.57,0,30-11.94,30-26.68V26.67C750,11.94,736.57,0,720,0H30C13.43,0,0,11.94,0,26.67Z"/><path class="cls-1" d="M0,438.58c0,14.73,13.43,26.67,30,26.67H720c16.57,0,30-11.94,30-26.67V311.43c0-14.74-13.43-26.68-30-26.68H30c-16.57,0-30,11.94-30,26.68Z"/><path class="cls-1" d="M0,723.33C0,738.06,13.43,750,30,750H720c16.57,0,30-11.94,30-26.67V596.17c0-14.72-13.43-26.67-30-26.67H30c-16.57,0-30,11.94-30,26.67Z"/></svg>