<?xml version="1.0" encoding="utf-8"?>
<!-- Generator: Adobe Illustrator 24.3.0, SVG Export Plug-In . SVG Version: 6.00 Build 0)  -->
<svg version="1.1" id="레이어_1" xmlns="http://www.w3.org/2000/svg" xmlns:xlink="http://www.w3.org/1999/xlink" x="0px"
	 y="0px" viewBox="0 0 103.1 91.5" style="enable-background:new 0 0 103.1 91.5;" xml:space="preserve">
<style type="text/css">
	.st0{fill:#333333;}
</style>
<path class="st0" d="M101.8,86.8c-1.7-13.7-7.1-56-8.3-65.7l0,0c-0.1-0.6-0.1-1-0.2-1.3c-0.1-0.6-0.4-1.3-0.9-2
	c-2.3-3.3-9-7-15.4-10c-1.4-0.7-2.8-1.3-4.1-1.9c-5.8-2.5-10.5-4.2-10.5-4.2c-2.5-0.9-19.2-0.9-21.7,0c0,0-5.3,1.9-11.5,4.7
	c-1.5,0.7-3,1.4-4.6,2.1c-6.6,3.2-13,7-14.5,10.3c-0.2,0.4-0.3,0.7-0.3,1.1c-0.1,0.5-0.2,1.3-0.3,2.4C8.1,33.7,3,73.7,1.4,87
	c-0.2,1.2-0.4,2.3-0.6,3.5h101.5C102.1,89.1,101.9,88,101.8,86.8z M83.3,62.2c-2.1,2.4-4.1,4.7-5.8,6.9c-1.8,2.2-3.2,4-4.2,5.4
	c-1,1.3-1.5,2.1-1.7,2.4c-0.4,0.6-0.8,1.2-1.2,1.7c-0.4,0.5-0.6,0.9-0.9,1.2c-0.2,0.3-0.4,0.4-0.6,0.4c-0.3,0-0.7-0.4-0.9-1.1
	c-0.3-0.7-0.4-1.4-0.4-1.9s0.1-0.9,0.3-1.3c1-2.3,2.9-5.9,5.7-10.8c0.4-0.7-0.5-1.4-1-0.9l-1.1,1c-2.1,1.9-3.5,2.9-4.2,2.9
	c-0.6,0-1.3-0.8-2-2.3c-0.4-0.9-0.7-1.8-0.9-2.5c-1.2,1-2.3,1.8-3.3,2.5c-1.3,0.9-2.6,1.7-3.9,2.5c-1.3,0.7-2.3,1.3-3.2,1.6
	c-0.8,0.3-1.6,0.5-2.2,0.5c-1.4,0-2.6-0.5-3.5-1.4s-1.4-2.1-1.4-3.6c0-1.7,0.4-3.4,1.2-5c0.8-1.7,1.9-3.4,3.4-5.1
	c1.5-1.8,3.3-3.7,5.5-5.9c1.6-1.6,2.4-2.5,2.4-2.7c0-0.1,0-0.2-0.1-0.3c-0.1-0.1-0.2-0.1-0.3-0.1c-0.4,0-1.5,0.7-3.4,2.1
	s-4.3,3.5-7.3,6.2s-4.7,4.5-8.1,8.3c-0.2,0.2-0.8,0.9-1.8,2.1s-1.8,1.9-2.2,2.3s-0.8,0.5-1.1,0.5c-0.5,0-1-0.5-1.4-1.4
	c-0.4-1-0.6-2-0.6-3c0-0.7,0.2-1.4,0.7-2.1c0.5-0.8,0.1-0.6,1.7-2.6c1.7-2,3-3.6,4.1-5c1.1-1.3,2.3-3,3.6-4.9c0.9-1.3,1.6-2.4,2-3.2
	c0.4-0.8,0.7-1.5,0.7-2.1c0-0.5-0.2-0.8-0.5-0.8c-0.7,0-2.1,0.9-4.2,2.6c-2,1.7-4.5,4.3-7.5,7.6c-3,3.4-6.1,7.3-9.4,11.7
	c-1.1,1.5-1.8,2.5-2.3,3.1c-0.4,0.5-0.9,0.8-1.5,0.8c-0.7,0-1.3-0.6-1.9-1.9c-0.6-1.3-0.9-2.3-0.9-3c0-0.3,0.1-0.5,0.4-0.8
	c2.6-3,4.7-5.5,6.3-7.6c0.8-1,1.6-2,2.3-3c1.4-1.9,8.7-12.2,1.9-10.7c-7.5,1.6-9.4-6.9-4.3-7.2c5.2-0.3,5.8-4,9.1-0.7
	c3.2,3.3,3.9,6.5,1.5,10.8c0,0,0,0,0,0.1c-0.4,0.8-0.9,1.7-1.4,2.7c-0.9,1.5-1.9,3.5-3.2,5.8c1-1.1,2-2.2,2.9-3.1
	c0.9-1,1.8-1.9,2.7-2.8s1.8-1.8,2.7-2.8c1.3-1.3,2.7-2.5,4.2-3.6c1.6-1.2,3-2.1,4.4-2.8c1.4-0.7,2.3-1.1,2.8-1.1
	c0.7,0,1.3,0.3,1.8,1c0.5,0.6,0.8,1.3,0.8,2.1c0,0.5-0.4,1.4-1.1,2.8s-1.8,3.2-3.2,5.3c-1.4,2.2-3.3,4.9-5.6,8.3
	c2.2-2,4.5-4.1,6.9-6.3c2.4-2.2,4.2-3.7,5.3-4.7c1.2-1,2.1-1.8,2.9-2.3c1.1-0.7,2.1-1.5,3.2-2.3s1.9-1.5,2.5-1.9
	c0.6-0.5,1.2-0.8,1.7-1.1c0.5-0.3,0.9-0.4,1.3-0.4c0.5,0,1.1,0.5,1.9,1.5s1.1,1.7,1.1,1.9c0,0.4-0.2,0.8-0.7,1.3s-1.4,1.4-2.8,2.7
	c-2.6,2.5-4.9,4.9-6.9,7.4c-1.9,2.5-3.4,4.8-4.4,6.9s-1.5,3.7-1.5,4.9c0,0.7,0.2,1.3,0.5,1.6c0.3,0.3,0.8,0.5,1.5,0.5
	c0.6,0,1.2-0.1,1.7-0.3c0.5-0.2,1.1-0.5,1.8-0.9c0.6-0.4,1.3-0.7,1.8-1.1c0.8-0.4,1.6-0.9,2.4-1.4c0.5-0.3,0.9-0.5,1.2-0.7
	c0-0.8,0.2-1.5,0.4-2.1c0.3-0.7,0.8-1.6,1.5-2.7c1-1.5,2-2.7,2.9-3.7s1.7-1.8,2.4-2.4c0.7-0.6,1.2-0.8,1.5-0.8
	c0.4,0,0.9,0.2,1.3,0.7s0.6,1,0.6,1.5c0,0.3-0.2,0.9-0.7,1.6s-1.2,1.6-2.1,2.8c-1,1.1-1.3,1.5-3,3c-0.1,0.1-1.2,1.3-1.2,1.4
	c0,0-2.5,3.4,3.3,0.6c1.9-0.9,3.5-2.9,5.5-5c0.8-0.8,1.4-1.5,1.9-2.2c0.5-0.6,1-1.2,1.4-1.8c0.4-0.5,0.8-1,1-1.2
	c0.3-0.3,0.5-0.4,0.7-0.4c0.4-0.1,0.7,0.1,1,0.5c0.2,0.4,0.3,1,0.3,1.8c0,0.5-0.2,1.1-0.6,1.7c-0.4,0.7-1.1,1.9-2.2,3.6
	s-2.2,3.4-3.2,5.2c-1.1,1.8-2.2,3.8-3.3,6.1c0.1-0.1,0.6-0.6,1.5-1.6c1-1,2-2,3-3.1c1.1-1.1,1.9-1.9,2.6-2.6
	c0.4-0.4,0.9-0.8,1.5-1.3c0.4-0.4,1.1-0.1,1.1,0.5C83.5,61.9,83.4,62,83.3,62.2z"/>
</svg>
